<svg id="svg" version="1.1" xmlns="http://www.w3.org/2000/svg" xmlns:xlink="http://www.w3.org/1999/xlink" width="400" height="400" viewBox="0, 0, 400,400"><g id="svgg"><path id="path0" d="M63.477 165.488 C 53.995 167.462,47.894 173.382,47.875 180.625 C 47.863 185.460,48.750 186.706,58.677 195.804 C 65.131 201.719,66.242 205.252,63.480 211.090 C 60.266 217.883,51.175 220.084,46.608 215.175 C 44.161 212.544,44.365 207.556,47.020 205.108 C 49.448 202.868,46.646 200.635,43.092 201.978 C 40.019 203.139,38.468 206.466,38.755 211.279 C 39.707 227.204,66.293 225.794,71.892 209.520 C 74.458 202.063,72.464 197.350,63.796 190.379 C 53.761 182.309,52.263 177.841,57.753 172.351 C 65.046 165.058,76.649 171.390,70.980 179.569 C 69.258 182.055,69.732 183.203,72.481 183.203 C 79.137 183.203,80.948 171.505,74.937 167.339 C 72.432 165.603,67.077 164.738,63.477 165.488 M244.006 166.633 C 231.597 169.638,221.070 184.235,218.996 201.313 C 218.193 207.921,212.375 214.844,207.624 214.844 C 204.704 214.844,204.894 212.223,208.760 199.197 C 212.412 186.889,212.403 186.328,208.555 186.328 C 205.787 186.328,204.660 187.513,203.725 191.408 C 200.337 205.518,195.077 214.453,190.158 214.453 C 185.875 214.453,186.115 209.938,191.211 194.612 C 193.608 187.404,193.613 186.558,191.259 186.116 C 186.898 185.298,186.174 186.349,182.993 198.108 C 180.799 206.223,180.315 207.238,177.027 210.645 C 173.847 213.939,174.023 214.012,174.023 209.398 L 174.023 205.515 171.344 200.354 C 168.270 194.432,167.825 192.316,168.898 188.708 C 169.644 186.199,169.317 185.547,167.316 185.547 C 164.173 185.547,163.499 186.255,159.316 193.945 C 155.266 201.393,152.944 204.929,150.872 206.801 C 149.782 207.785,149.079 208.833,148.791 209.902 C 147.365 215.198,141.797 216.807,141.797 211.922 C 141.797 210.116,143.729 203.076,145.687 197.743 C 150.161 185.562,140.042 180.912,129.512 190.309 C 128.234 191.450,127.314 192.053,127.468 191.649 C 128.976 187.699,128.448 185.938,125.756 185.938 C 122.647 185.938,122.076 186.922,119.682 196.410 C 117.350 205.649,117.321 205.728,115.375 208.266 C 111.266 213.626,107.659 216.014,105.517 214.795 C 103.334 213.553,104.149 207.853,108.315 195.209 C 110.857 187.496,110.927 186.680,109.072 186.403 C 107.461 186.162,105.038 187.115,104.389 188.246 L 103.764 189.336 102.370 187.873 C 95.604 180.767,81.508 189.993,77.873 203.906 C 74.003 218.718,84.968 226.298,95.308 215.958 L 97.656 213.609 97.658 215.301 C 97.664 222.166,105.996 222.547,112.598 215.983 C 114.048 214.542,115.232 213.476,115.230 213.615 C 115.228 213.754,114.964 214.730,114.644 215.785 C 113.666 219.008,114.179 219.922,116.967 219.922 C 119.722 219.922,120.495 219.004,121.491 214.547 C 124.866 199.449,130.113 191.016,136.131 191.016 C 140.617 191.016,140.940 194.263,137.361 203.378 C 133.926 212.124,133.550 216.303,135.981 218.733 C 139.753 222.505,146.318 220.443,149.377 214.525 L 150.047 213.229 151.147 214.720 C 157.297 223.058,168.518 222.807,177.832 214.123 L 179.688 212.393 179.688 213.926 C 179.688 221.549,188.276 222.723,195.385 216.072 L 197.948 213.675 198.137 215.639 C 198.928 223.874,211.280 221.877,217.188 212.558 C 219.020 209.668,219.531 209.230,219.531 210.551 C 219.531 211.969,221.231 215.006,223.043 216.824 C 230.747 224.555,248.169 222.496,257.520 212.750 C 259.622 210.558,259.655 210.598,258.589 214.000 C 257.136 218.635,257.681 219.922,261.100 219.922 C 264.001 219.922,264.276 219.480,266.239 211.696 C 269.772 197.683,276.903 188.874,282.608 191.473 C 284.526 192.347,284.422 195.041,282.257 200.649 C 278.885 209.380,277.887 215.375,279.416 217.711 C 282.219 221.993,288.753 220.981,294.572 215.363 C 296.822 213.190,297.266 212.904,297.266 213.623 C 297.266 221.301,307.989 222.756,314.996 216.028 L 317.448 213.673 317.448 215.445 C 317.448 223.588,329.473 221.742,335.477 212.678 L 336.617 210.957 336.806 213.903 C 337.455 224.018,352.167 222.130,357.216 211.283 C 359.289 206.830,358.287 206.320,354.676 209.992 C 351.770 212.946,349.147 214.453,346.910 214.453 C 343.148 214.453,343.198 210.234,347.132 195.848 L 348.534 190.720 352.947 190.551 C 357.656 190.370,358.594 190.023,358.594 188.457 C 358.594 186.725,357.678 186.328,353.683 186.328 C 351.657 186.328,350.000 186.192,350.000 186.026 C 350.000 185.860,350.439 183.992,350.977 181.875 C 352.651 175.273,352.326 173.828,349.169 173.828 C 346.665 173.828,346.225 174.481,344.377 180.937 L 342.863 186.226 340.113 186.481 C 335.071 186.950,334.409 190.625,339.367 190.625 L 341.468 190.625 341.193 191.895 C 340.766 193.860,337.141 203.857,336.012 206.180 C 333.881 210.567,328.391 215.289,326.093 214.713 C 323.434 214.045,324.080 208.525,328.321 195.672 C 331.011 187.519,331.098 186.704,329.331 186.143 C 327.770 185.648,324.429 187.002,324.019 188.297 C 323.780 189.049,323.651 188.999,322.073 187.544 C 314.166 180.256,299.214 191.567,297.180 206.377 C 296.559 210.897,292.563 214.830,288.583 214.840 C 284.907 214.849,285.347 210.415,290.387 196.680 C 294.505 185.454,283.789 181.562,273.984 190.723 C 271.353 193.181,270.924 193.415,271.477 192.090 C 272.188 190.386,277.321 172.831,277.562 171.279 C 278.220 167.041,272.202 166.394,270.479 170.517 C 270.177 171.240,268.626 176.719,267.033 182.693 C 261.321 204.117,258.973 208.403,250.541 212.789 C 243.482 216.461,235.647 216.643,231.508 213.231 C 220.840 204.438,232.907 172.049,247.462 170.409 C 253.959 169.677,255.666 179.011,249.972 184.131 C 246.976 186.824,247.680 188.566,251.612 188.188 C 256.247 187.743,259.768 182.684,259.846 176.358 C 259.944 168.496,253.261 164.393,244.006 166.633 M98.592 189.997 C 100.903 190.963,101.487 195.551,100.027 201.263 C 96.680 214.349,84.766 220.205,84.766 208.765 C 84.766 200.146,89.204 192.152,95.170 190.025 C 97.075 189.347,97.037 189.347,98.592 189.997 M319.412 190.397 C 322.067 192.683,320.552 202.708,316.676 208.505 C 309.465 219.285,301.838 215.437,305.240 202.734 C 307.718 193.483,315.314 186.869,319.412 190.397 M164.195 200.779 C 168.371 209.280,167.003 216.016,161.100 216.016 C 154.326 216.016,153.840 210.454,159.661 199.559 C 161.917 195.339,161.462 195.216,164.195 200.779 " stroke="none" fill="#de3951" fill-rule="evenodd"></path><path id="path1" d="M0.000 200.000 L 0.000 400.000 200.000 400.000 L 400.000 400.000 400.000 200.000 L 400.000 0.000 200.000 0.000 L 0.000 0.000 0.000 200.000 M72.097 165.809 C 80.142 168.209,81.420 180.975,73.843 183.245 C 70.273 184.314,68.827 182.612,70.754 179.608 C 76.087 171.297,65.928 165.364,58.112 172.226 C 52.408 177.234,54.078 182.463,63.855 190.211 C 72.068 196.720,74.130 200.720,72.703 207.372 C 68.745 225.828,38.355 228.475,38.503 210.352 C 38.553 204.273,41.979 200.482,46.378 201.639 C 48.480 202.192,48.714 203.264,47.137 205.106 C 42.470 210.558,45.941 217.551,53.320 217.566 C 59.513 217.578,64.451 212.304,64.502 205.622 C 64.533 201.546,63.736 200.462,54.386 191.867 C 48.656 186.600,47.852 185.245,47.852 180.859 C 47.852 170.467,60.790 162.436,72.097 165.809 M253.162 166.424 C 262.319 168.839,262.256 185.053,253.079 188.101 C 248.584 189.594,245.746 186.817,249.383 184.484 C 255.176 180.768,254.231 170.688,248.092 170.712 C 236.716 170.756,224.515 193.614,228.335 207.726 C 232.069 221.519,256.127 215.997,261.487 200.116 C 262.198 198.011,263.149 195.410,263.601 194.336 C 264.053 193.262,265.321 188.867,266.420 184.570 C 270.085 170.229,270.492 169.125,272.453 168.194 C 275.737 166.636,277.970 167.952,277.621 171.241 C 277.452 172.834,273.647 186.274,271.880 191.523 C 271.551 192.501,271.768 192.388,273.939 190.452 C 284.811 180.761,295.200 185.802,290.040 198.266 C 288.423 202.172,286.328 209.928,286.328 212.007 C 286.328 218.043,296.490 213.055,296.991 206.773 C 298.159 192.132,314.719 179.546,322.324 187.519 C 323.543 188.797,323.777 188.909,323.937 188.296 C 324.372 186.636,328.934 185.216,330.270 186.326 C 331.215 187.109,330.993 188.297,328.569 195.418 C 324.803 206.482,323.793 213.389,325.786 214.456 C 327.752 215.508,333.786 210.421,335.995 205.850 C 336.828 204.126,341.406 191.379,341.406 190.784 C 341.406 190.696,340.461 190.625,339.306 190.625 C 334.405 190.625,334.927 186.747,339.881 186.354 L 342.664 186.133 344.348 180.478 C 346.200 174.259,346.765 173.433,349.164 173.443 C 352.827 173.459,353.016 175.813,350.147 185.645 C 349.966 186.263,350.318 186.328,353.858 186.328 C 357.456 186.328,357.817 186.397,358.376 187.196 C 360.044 189.577,358.833 190.380,353.205 190.625 L 348.715 190.820 347.801 193.945 C 345.931 200.336,344.059 209.518,344.259 211.313 C 344.772 215.905,349.444 215.197,354.761 209.722 C 358.786 205.577,359.938 207.047,356.826 212.356 C 350.737 222.747,337.273 223.993,336.779 214.211 L 336.631 211.274 335.360 213.157 C 329.304 222.126,317.188 223.612,317.188 215.386 C 317.188 214.370,317.125 214.399,315.051 216.361 C 308.516 222.541,300.589 222.151,297.649 215.505 L 296.823 213.636 294.514 215.774 C 288.913 220.959,282.354 222.052,279.553 218.267 C 277.675 215.730,278.303 210.867,281.702 201.631 C 284.739 193.375,284.590 191.300,280.957 191.300 C 274.755 191.300,269.212 199.664,265.814 214.146 C 264.605 219.298,264.169 219.918,261.547 220.213 C 257.972 220.616,256.987 218.990,258.178 214.649 C 258.622 213.032,258.984 211.628,258.984 211.528 C 258.984 211.428,258.238 212.156,257.325 213.146 C 246.409 224.988,224.134 224.408,219.778 212.169 L 219.049 210.119 217.698 212.188 C 214.646 216.867,210.382 220.179,206.518 220.871 C 202.224 221.641,198.047 219.128,198.047 215.775 L 198.047 213.997 195.627 216.187 C 190.139 221.153,184.408 222.092,181.286 218.536 C 180.082 217.164,179.084 214.400,179.450 213.447 C 179.562 213.153,178.393 213.972,176.852 215.266 C 167.907 222.777,157.385 222.944,151.632 215.667 L 150.120 213.754 149.412 214.952 C 146.587 219.735,141.801 221.881,137.780 220.168 C 133.111 218.178,133.121 213.785,137.823 201.559 C 140.579 194.391,140.285 191.730,136.675 191.155 C 130.923 190.240,124.914 199.450,121.857 213.867 C 120.875 218.498,120.394 219.364,118.513 219.884 C 114.738 220.926,113.125 218.760,114.672 214.728 C 114.813 214.362,113.872 215.095,112.581 216.358 C 106.231 222.571,98.659 222.350,97.453 215.916 L 97.178 214.450 94.848 216.608 C 86.399 224.430,76.936 221.060,76.960 210.239 C 76.996 194.033,93.939 179.121,102.542 187.724 C 103.724 188.906,103.884 188.967,104.093 188.309 C 104.435 187.232,106.774 186.264,108.699 186.404 C 111.110 186.578,111.082 187.666,108.473 195.219 C 105.008 205.250,103.680 212.564,105.028 214.195 C 106.427 215.887,110.231 214.198,113.328 210.510 C 117.021 206.112,117.082 205.983,118.957 198.409 C 121.871 186.643,122.244 185.938,125.564 185.938 C 128.510 185.938,129.042 187.080,127.897 190.947 C 127.661 191.745,127.811 191.686,129.146 190.453 C 136.685 183.492,145.044 183.436,146.902 190.333 C 147.487 192.508,147.236 193.793,144.761 201.256 C 141.426 211.311,141.142 213.603,143.121 214.504 C 144.990 215.356,147.821 212.842,148.775 209.483 C 149.090 208.376,149.701 207.484,150.633 206.774 C 152.405 205.422,155.351 200.926,159.167 193.750 C 163.101 186.351,165.627 184.142,168.605 185.499 C 169.713 186.004,169.706 185.777,168.760 190.365 C 168.210 193.031,168.766 195.056,171.465 200.221 C 174.120 205.303,174.880 208.210,174.337 211.206 L 173.970 213.235 175.463 212.052 C 179.206 209.088,180.458 206.779,182.631 198.836 C 185.375 188.801,185.593 188.175,186.740 187.028 C 188.726 185.042,193.359 185.729,193.359 188.010 C 193.359 188.438,192.406 191.619,191.240 195.078 C 186.300 209.742,186.065 214.063,190.206 214.063 C 194.770 214.063,199.306 207.111,202.524 195.189 C 204.819 186.687,205.334 185.938,208.885 185.938 C 212.295 185.938,212.412 187.810,209.578 197.070 C 205.079 211.775,204.812 215.385,208.275 214.693 C 213.246 213.699,218.484 207.024,218.887 201.172 C 220.304 180.606,238.188 162.475,253.162 166.424 M315.455 189.892 C 307.218 191.823,300.655 211.184,307.156 214.373 C 313.357 217.415,323.832 198.537,319.964 191.291 C 319.558 190.531,317.349 189.176,317.032 189.492 C 317.010 189.514,316.300 189.694,315.455 189.892 M93.843 190.690 C 86.218 194.387,81.471 212.509,87.592 214.549 C 92.129 216.061,98.809 207.981,100.291 199.189 C 101.630 191.240,99.231 188.077,93.843 190.690 M159.469 200.293 C 154.814 209.213,154.528 212.938,158.320 215.250 C 162.752 217.953,167.379 213.264,166.387 207.076 C 166.069 205.094,162.270 196.552,161.685 196.503 C 161.559 196.493,160.562 198.198,159.469 200.293 " stroke="none" fill="#fbfbfb" fill-rule="evenodd"></path><path id="path2" d="M231.427 173.926 L 229.883 175.586 231.543 174.042 C 233.087 172.606,233.383 172.266,233.087 172.266 C 233.023 172.266,232.276 173.013,231.427 173.926 M174.309 209.375 C 174.309 210.127,174.390 210.435,174.488 210.059 C 174.586 209.683,174.586 209.067,174.488 208.691 C 174.390 208.315,174.309 208.623,174.309 209.375 " stroke="none" fill="#de9ca5" fill-rule="evenodd"></path><path id="path3" d="M78.606 175.000 C 78.606 175.752,78.687 176.060,78.785 175.684 C 78.883 175.308,78.883 174.692,78.785 174.316 C 78.687 173.940,78.606 174.248,78.606 175.000 M58.203 185.742 C 58.932 186.494,59.616 187.109,59.724 187.109 C 59.831 187.109,59.323 186.494,58.594 185.742 C 57.865 184.990,57.181 184.375,57.073 184.375 C 56.966 184.375,57.474 184.990,58.203 185.742 M72.747 204.297 C 72.747 205.049,72.827 205.356,72.926 204.980 C 73.024 204.604,73.024 203.989,72.926 203.613 C 72.827 203.237,72.747 203.545,72.747 204.297 M294.901 215.137 L 293.555 216.602 295.020 215.255 C 296.383 214.002,296.664 213.672,296.366 213.672 C 296.300 213.672,295.641 214.331,294.901 215.137 M332.401 216.309 L 331.055 217.773 332.520 216.427 C 333.325 215.687,333.984 215.028,333.984 214.962 C 333.984 214.664,333.654 214.945,332.401 216.309 " stroke="none" fill="#e08373" fill-rule="evenodd"></path><path id="path4" d="M248.145 165.894 C 248.521 165.993,249.136 165.993,249.512 165.894 C 249.888 165.796,249.580 165.716,248.828 165.716 C 248.076 165.716,247.769 165.796,248.145 165.894 M162.207 220.983 C 162.798 221.072,163.765 221.072,164.355 220.983 C 164.946 220.893,164.463 220.820,163.281 220.820 C 162.100 220.820,161.616 220.893,162.207 220.983 M204.395 220.972 C 204.771 221.071,205.386 221.071,205.762 220.972 C 206.138 220.874,205.830 220.794,205.078 220.794 C 204.326 220.794,204.019 220.874,204.395 220.972 " stroke="none" fill="#e4c1cc" fill-rule="evenodd"></path></g></svg>